<?xml version="1.0" encoding="UTF-8"?>
<!DOCTYPE svg PUBLIC "-//W3C//DTD SVG 1.1//EN" "http://www.w3.org/Graphics/SVG/1.1/DTD/svg11.dtd">
<!-- Creator: CorelDRAW 2020 (64 Bit) -->
<svg xmlns="http://www.w3.org/2000/svg" xml:space="preserve" width="1024px" height="768px" version="1.1" style="shape-rendering:geometricPrecision; text-rendering:geometricPrecision; image-rendering:optimizeQuality; fill-rule:evenodd; clip-rule:evenodd"
viewBox="0 0 1024 768"
 xmlns:xlink="http://www.w3.org/1999/xlink"
 xmlns:xodm="http://www.corel.com/coreldraw/odm/2003">
 <defs>
  <style type="text/css">
   <![CDATA[
    .fil0 {fill:#FEDD99}
   ]]>
  </style>
 </defs>
 <g id="Camada_x0020_1">
  <metadata id="CorelCorpID_0Corel-Layer"/>
  <path class="fil0" d="M561.449 135.294c3.001,34.419 22.062,91.122 46.861,116.803 24.799,25.68 55.336,20.336 81.502,22.543 26.167,2.206 47.964,11.962 63.695,31.623 15.732,19.661 25.398,49.226 43.982,61.117 18.583,11.89 46.083,6.106 73.583,0.321 0,-64.224 0,-128.447 -7.947,-182.7 -7.948,-54.253 -23.842,-98.534 -56.953,-116.728 -33.11,-18.193 -83.438,-10.299 -123.241,-4.562 -39.802,5.737 -69.081,9.314 -90.251,17.171 -21.169,7.857 -34.23,19.992 -31.231,54.412z"/>
 </g>
</svg>
