<?xml version="1.0" encoding="UTF-8"?>
<!DOCTYPE svg PUBLIC "-//W3C//DTD SVG 1.1//EN" "http://www.w3.org/Graphics/SVG/1.1/DTD/svg11.dtd">
<!-- Creator: CorelDRAW -->
<svg xmlns="http://www.w3.org/2000/svg" xml:space="preserve" width="402.167mm" height="185.208mm" version="1.1" style="shape-rendering:geometricPrecision; text-rendering:geometricPrecision; image-rendering:optimizeQuality; fill-rule:evenodd; clip-rule:evenodd"
viewBox="0 0 40216.66 18520.82"
 xmlns:xlink="http://www.w3.org/1999/xlink"
 xmlns:xodm="http://www.corel.com/coreldraw/odm/2003">
 <defs>
  <style type="text/css">
   <![CDATA[
    .str0 {stroke:#FEFEFE;stroke-width:105.83;stroke-miterlimit:22.9256;stroke-dasharray:529.150000 317.490000}
    .fil2 {fill:none}
    .fil0 {fill:#FBB244}
    .fil1 {fill:#FEEE48}
   ]]>
  </style>
   <mask id="id0">
  <linearGradient id="id1" gradientUnits="userSpaceOnUse" x1="8068.56" y1="12532.33" x2="1946.28" y2="-4385.59">
   <stop offset="0" style="stop-opacity:1; stop-color:white"/>
   <stop offset="1" style="stop-opacity:0; stop-color:white"/>
  </linearGradient>
    <rect style="fill:url(#id1)" x="952.73" y="2194.46" width="37584.69" height="14131.9"/>
   </mask>
   <mask id="id2">
  <linearGradient id="id3" gradientUnits="userSpaceOnUse" x1="18532.19" y1="15235.03" x2="28611.67" y2="-7502.55">
   <stop offset="0" style="stop-opacity:1; stop-color:white"/>
   <stop offset="1" style="stop-opacity:0; stop-color:white"/>
  </linearGradient>
    <rect style="fill:url(#id3)" x="3045.68" y="4676.67" width="29811.94" height="11332.61"/>
   </mask>
 </defs>
 <g id="Camada_x0020_1">
  <metadata id="CorelCorpID_0Corel-Layer"/>
  <path class="fil0" style="mask:url(#id0)" d="M962.73 5821.37c0,11715.59 11343.63,10455.49 32166.85,10455.49 8682.87,-861.67 6614.83,-9813.03 -4222.71,-6331.36 -10837.54,3481.67 -11729.87,-15356.75 -27944.14,-4124.13z"/>
  <path class="fil1" style="mask:url(#id2)" d="M3055.68 6935.27c0,10618.6 21784.66,11397.57 28321.14,4986.49 6982.6,-6848.66 -12908.61,1386.46 -17610.92,-3775.63 -4702.32,-5162.09 -7353.44,-3656.66 -10710.22,-1210.86z"/>
  <path class="fil2 str0" d="M3404.07 9170.27c1274.04,-684.19 2548.07,-1368.4 3692.33,-1386.1 1144.27,-17.69 2158.78,631.12 2972.75,1539.46 813.96,908.34 1427.38,2076.2 2457.46,2854.78 1030.07,778.57 2476.82,1167.86 3850.65,920.13 1373.82,-247.73 2674.73,-1132.47 3898.68,-2070.3 1223.94,-937.82 2370.92,-1928.75 3690.01,-2784 1319.08,-855.26 2810.27,-1574.84 4376.06,-1521.75 1565.79,53.08 3206.16,878.83 4441.52,2046.69 1235.36,1167.87 2065.7,2677.84 3076.6,3509.5 1010.9,831.66 2202.35,985.02 3393.8,1138.37"/>
 </g>
</svg>
