<?xml version="1.0" encoding="UTF-8"?>
<!DOCTYPE svg PUBLIC "-//W3C//DTD SVG 1.1//EN" "http://www.w3.org/Graphics/SVG/1.1/DTD/svg11.dtd">
<!-- Creator: CorelDRAW -->
<svg xmlns="http://www.w3.org/2000/svg" xml:space="preserve" width="296.333mm" height="132.292mm" version="1.1" style="shape-rendering:geometricPrecision; text-rendering:geometricPrecision; image-rendering:optimizeQuality; fill-rule:evenodd; clip-rule:evenodd"
viewBox="0 0 29633.32 13229.16"
 xmlns:xlink="http://www.w3.org/1999/xlink"
 xmlns:xodm="http://www.corel.com/coreldraw/odm/2003">
 <defs>
  <style type="text/css">
   <![CDATA[
    .str0 {stroke:#FEFEFE;stroke-width:105.83;stroke-miterlimit:22.9256;stroke-dasharray:529.150000 317.490000}
    .fil2 {fill:none}
    .fil1 {fill:#FBB244}
    .fil0 {fill:#FEEE48}
   ]]>
  </style>
   <mask id="id0">
  <linearGradient id="id1" gradientUnits="userSpaceOnUse" x1="15430" y1="8400.92" x2="8688.35" y2="17021.97">
   <stop offset="0" style="stop-opacity:1; stop-color:white"/>
   <stop offset="1" style="stop-opacity:0; stop-color:white"/>
  </linearGradient>
    <rect style="fill:url(#id1)" x="936.57" y="1127.24" width="24331.37" height="10125.33"/>
   </mask>
   <mask id="id2">
  <linearGradient id="id3" gradientUnits="userSpaceOnUse" x1="23056.65" y1="5400.21" x2="15304.42" y2="17806.01">
   <stop offset="0" style="stop-opacity:1; stop-color:white"/>
   <stop offset="1" style="stop-opacity:0; stop-color:white"/>
  </linearGradient>
    <rect style="fill:url(#id3)" x="9421.95" y="2823.52" width="20111.37" height="8968.21"/>
   </mask>
 </defs>
 <g id="Camada_x0020_1">
  <metadata id="CorelCorpID_0Corel-Layer"/>
  <path class="fil0" style="mask:url(#id0)" d="M25267.94 9486.74c0,-12394.89 -10759.74,-7338.92 -21653.45,-7338.92 -4471.73,443.76 -3132.23,6274.75 2449.17,4481.66 5581.4,-1793.08 10853.84,8642.13 19204.28,2857.26z"/>
  <path class="fil1" style="mask:url(#id2)" d="M29523.32 10350.56c0,-9061.45 -19050.19,-7587.4 -19651.11,-7167.2 -1869.53,1307.32 2603.11,5984.46 6129.89,4851.45 4523.62,-1453.23 6753.35,7004.27 13521.22,2315.75z"/>
  <path class="fil2 str0" d="M29523.32 6162.24c-13.77,460.87 -27.55,921.74 -662.98,2264.46 -635.41,1342.7 -1892.51,3567.25 -3220.5,3143.36 -1327.99,-423.9 -2726.88,-3496.26 -3719.64,-4407.09 -992.74,-910.84 -1579.35,339.83 -2767.88,55.6 -1188.52,-284.26 -2978.98,-2103.42 -4435.54,-3117.21 -1456.56,-1013.82 -2579.25,-1222.28 -3610.82,-218.93 -1031.55,1003.34 -1971.98,3218.45 -3414.9,3474.28 -1442.91,255.81 -3388.29,-1447.67 -4407.55,-2564.86 -1019.27,-1117.22 -1112.39,-1648.14 -1205.53,-2179.07"/>
 </g>
</svg>
